<svg xmlns="http://www.w3.org/2000/svg" fill="currentColor" viewBox="45 91 178.77 86">
    <path d="M104.58 159.791L104.589 125.4L74.79 142.591V177L104.58 159.791Z" fill="#FF9234"/>
    <path d="M164.162 159.8L164.17 125.4L134.38 142.6V177L164.162 159.8Z" fill="#FF9234"/>
    <path fill-rule="evenodd" clip-rule="evenodd" d="M45 125.4L104.589 91L134.371 108.2L164.17 91L223.751 125.4L193.961 142.6L164.17 125.4L164.17 125.4L193.96 142.6V177L164.161 159.8L164.17 125.4L134.38 142.6L134.381 142.6V177L104.582 159.791L104.591 125.401L104.589 125.4L74.7904 142.591V177L45 159.791V125.4Z" fill="#F37121"/>
    <path d="M223.751 125.4V159.8L193.961 177V142.6L223.751 125.4Z" fill="#FF9234"/>
</svg>